Avatar 3D (2009) 3DTV Active Shutter (side by side)


 Format                           : Matroska
Format version                   : Version 2
File size                        : 11.7 GiB
Duration                         : 2h 41mn
Overall bit rate                 : 10.3 Mbps
Movie name                       : RED_BIRD_3D_WW.Title852.Bluray3DRip
Encoded date                     : UTC 2011-11-18 20:29:31
Writing application              : DVDFab
Writing library                  : libebml v0.7.8 + libmatroska v0.8.1

Video
ID                               : 1
Format                           : AVC
Format/Info                      : Advanced Video Codec
Format profile                   : High@L5.1
Format settings, CABAC           : Yes
Format settings, ReFrames        : 2 frames
Format settings, GOP             : M=3, N=15
Codec ID                         : V_MPEG4/ISO/AVC
Duration                         : 2h 41mn
Bit rate mode                    : Variable
Bit rate                         : 9 796 Kbps
Maximum bit rate                 : 15.0 Mbps
Width                            : 1 920 pixels
Height                           : 1 080 pixels
Display aspect ratio             : 16:9
Frame rate                       : 23.976 fps
Color space                      : YUV
Chroma subsampling               : 4:2:0
Bit depth                        : 8 bits
Scan type                        : Progressive
Bits/(Pixel*Frame)               : 0.197
Stream size                      : 11.1 GiB (95%)

Audio
ID                               : 2
Format                           : AC-3
Format/Info                      : Audio Coding 3
Mode extension                   : CM (complete main)
Codec ID                         : A_AC3
Duration                         : 2h 41mn
Bit rate mode                    : Constant
Bit rate                         : 320 Kbps
Channel(s)                       : 6 channels
Channel positions                : Front: L C R, Side: L R, LFE
Sampling rate                    : 48.0 KHz
Bit depth                        : 16 bits
Compression mode                 : Lossy
Stream size                      : 370 MiB (3%)

 
http://www.imdb.com/title/tt0499549/